<?xml version="1.0" encoding="UTF-8"?>
<svg xmlns="http://www.w3.org/2000/svg" id="Layer_1" data-name="Layer 1" viewBox="0 0 24 24">
  <path d="M17.854,17.146c.195,.195,.195,.512,0,.707-.098,.098-.226,.146-.354,.146s-.256-.049-.354-.146l-5.146-5.146-5.146,5.146c-.098,.098-.226,.146-.354,.146s-.256-.049-.354-.146c-.195-.195-.195-.512,0-.707l5.146-5.146L6.146,6.854c-.195-.195-.195-.512,0-.707s.512-.195,.707,0l5.146,5.146,5.146-5.146c.195-.195,.512-.195,.707,0s.195,.512,0,.707l-5.146,5.146,5.146,5.146Z"/>
</svg>
